<svg width="88" height="88" viewBox="0 0 88 88" fill="none" xmlns="http://www.w3.org/2000/svg">
<rect x="3.34717" y="3.60217" width="80.7957" height="80.7957" rx="7.57058" fill="#C700E7" fill-opacity="0.05"/>
<rect x="1.83305" y="2.08806" width="83.8239" height="83.8239" rx="9.08469" stroke="url(#paint0_linear_36_1763)" stroke-opacity="0.16" stroke-width="3.02823"/>
<path d="M62.1655 44.3043C61.9844 44.1991 61.7853 44.0985 61.5795 44.0001C61.7853 43.9016 61.9844 43.801 62.1655 43.6959C63.1913 43.1126 64.0916 42.3323 64.8145 41.3997C65.5375 40.4672 66.0688 39.4008 66.378 38.2621C66.6872 37.1234 66.768 35.9347 66.6159 34.7646C66.4638 33.5944 66.0818 32.466 65.4918 31.4441C64.9018 30.4222 64.1155 29.5271 63.1782 28.8104C62.2409 28.0936 61.171 27.5694 60.0302 27.2678C58.8895 26.9662 57.7003 26.8932 56.5312 27.053C55.3621 27.2129 54.2362 27.6024 53.2183 28.1992C53.0371 28.3043 52.8492 28.4228 52.6635 28.5548C52.6814 28.3311 52.6926 28.1074 52.6926 27.8838C52.6926 25.5108 51.7499 23.235 50.072 21.5571C48.3941 19.8791 46.1183 18.9365 43.7453 18.9365C41.3723 18.9365 39.0966 19.8791 37.4186 21.5571C35.7407 23.235 34.798 25.5108 34.798 27.8838C34.798 28.094 34.798 28.3177 34.8271 28.5548C34.6414 28.4273 34.4536 28.3043 34.2724 28.1992C33.2544 27.6024 32.1285 27.2129 30.9594 27.053C29.7903 26.8932 28.6012 26.9662 27.4604 27.2678C26.3196 27.5694 25.2498 28.0936 24.3124 28.8104C23.3751 29.5271 22.5888 30.4222 21.9988 31.4441C21.4088 32.466 21.0268 33.5944 20.8747 34.7646C20.7226 35.9347 20.8035 37.1234 21.1126 38.2621C21.4218 39.4008 21.9531 40.4672 22.6761 41.3997C23.399 42.3323 24.2993 43.1126 25.3251 43.6959C25.5063 43.801 25.7053 43.9016 25.9111 44.0001C25.7053 44.0985 25.5063 44.1991 25.3251 44.3043C24.2993 44.8875 23.399 45.6678 22.6761 46.6004C21.9531 47.5329 21.4218 48.5993 21.1126 49.738C20.8035 50.8768 20.7226 52.0654 20.8747 53.2356C21.0268 54.4057 21.4088 55.5342 21.9988 56.556C22.5888 57.5779 23.3751 58.473 24.3124 59.1897C25.2498 59.9065 26.3196 60.4308 27.4604 60.7324C28.6012 61.034 29.7903 61.1069 30.9594 60.9471C32.1285 60.7872 33.2544 60.3977 34.2724 59.801C34.4536 59.6958 34.6414 59.5773 34.8271 59.4453C34.8092 59.669 34.798 59.8927 34.798 60.1052C34.798 62.4781 35.7407 64.7539 37.4186 66.4319C39.0966 68.1098 41.3723 69.0525 43.7453 69.0525C46.1183 69.0525 48.3941 68.1098 50.072 66.4319C51.7499 64.7539 52.6926 62.4781 52.6926 60.1052C52.6926 59.8949 52.6814 59.6712 52.6635 59.4453C52.8492 59.5728 53.0371 59.6958 53.2183 59.801C54.5736 60.5861 56.1121 60.9997 57.6785 60.9999C58.4655 60.9989 59.2491 60.8951 60.0092 60.6912C61.7186 60.2331 63.2536 59.2783 64.4203 57.9478C65.587 56.6172 66.333 54.9705 66.5638 53.2159C66.7946 51.4614 66.4999 49.6778 65.717 48.0907C64.9342 46.5037 63.6982 45.1844 62.1655 44.2998V44.3043ZM43.7453 50.2632C42.5066 50.2632 41.2957 49.8958 40.2657 49.2076C39.2358 48.5194 38.433 47.5413 37.959 46.3968C37.4849 45.2524 37.3609 43.9931 37.6026 42.7782C37.8442 41.5633 38.4407 40.4473 39.3166 39.5714C40.1925 38.6955 41.3085 38.099 42.5234 37.8573C43.7384 37.6156 44.9977 37.7397 46.1421 38.2137C47.2865 38.6878 48.2647 39.4905 48.9529 40.5205C49.6411 41.5504 50.0084 42.7613 50.0084 44.0001C50.0084 45.6611 49.3486 47.2542 48.174 48.4287C46.9994 49.6033 45.4064 50.2632 43.7453 50.2632Z" fill="url(#paint1_linear_36_1763)"/>
<defs>
<linearGradient id="paint0_linear_36_1763" x1="3.34717" y1="14.5032" x2="87.4549" y2="19.3612" gradientUnits="userSpaceOnUse">
<stop stop-color="#C700E7"/>
<stop offset="1" stop-color="#6303FF"/>
</linearGradient>
<linearGradient id="paint1_linear_36_1763" x1="20.8" y1="25.6982" x2="68.5974" y2="28.2262" gradientUnits="userSpaceOnUse">
<stop stop-color="#C700E7"/>
<stop offset="1" stop-color="#6303FF"/>
</linearGradient>
</defs>
</svg>
