<svg width="1315" height="774" viewBox="0 0 1315 774" fill="none" xmlns="http://www.w3.org/2000/svg">
<ellipse cx="844.18" cy="405.685" rx="470.5" ry="356" fill="url(#paint0_radial_36_1693)" fill-opacity="0.18"/>
<ellipse cx="408.826" cy="386.953" rx="390.673" ry="367.599" transform="rotate(-2.90916 408.826 386.953)" fill="url(#paint1_radial_36_1693)" fill-opacity="0.14"/>
<path d="M133.309 472.696C134.66 473.65 136.207 474.292 137.837 474.575C139.467 474.858 141.14 474.774 142.733 474.331C144.327 473.887 145.803 473.095 147.052 472.011C148.302 470.927 149.295 469.579 149.96 468.064L155.236 452.03C156.519 448.172 158.683 444.667 161.557 441.791C164.43 438.915 167.934 436.748 171.791 435.461L187.126 430.48C189.305 429.722 191.19 428.295 192.512 426.403C193.532 424.968 194.196 423.312 194.45 421.57C194.704 419.828 194.54 418.051 193.972 416.385C193.404 414.719 192.448 413.212 191.182 411.988C189.917 410.765 188.378 409.86 186.694 409.348L171.517 404.414C167.658 403.134 164.15 400.973 161.272 398.102C158.394 395.231 156.224 391.729 154.934 387.873L149.953 372.545C149.187 370.373 147.765 368.493 145.883 367.166C143.99 365.861 141.745 365.162 139.445 365.162C137.146 365.162 134.901 365.861 133.007 367.166C131.097 368.517 129.658 370.435 128.896 372.648L123.853 388.168C122.566 391.923 120.443 395.337 117.642 398.15C114.842 400.964 111.438 403.103 107.689 404.407L92.3399 409.382C90.1559 410.154 88.2668 411.588 86.9354 413.483C85.6041 415.379 84.8968 417.643 84.9119 419.959C84.9269 422.276 85.6637 424.53 87.0196 426.408C88.3754 428.286 90.2831 429.695 92.477 430.439L107.661 435.372C112.584 437.024 116.912 440.089 120.105 444.184C121.928 446.534 123.332 449.173 124.257 451.996L129.246 467.303C130.013 469.482 131.438 471.367 133.323 472.696M200.09 514.357C201.485 515.343 203.151 515.869 204.859 515.865C206.555 515.87 208.211 515.35 209.601 514.378C211.031 513.368 212.102 511.927 212.657 510.266L215.206 502.434C215.745 500.808 216.655 499.33 217.865 498.117C219.075 496.904 220.55 495.989 222.175 495.445L230.164 492.855C231.775 492.283 233.17 491.226 234.158 489.83C235.145 488.434 235.677 486.767 235.68 485.057C235.68 483.303 235.119 481.594 234.078 480.181C233.038 478.768 231.573 477.725 229.897 477.205L222.058 474.669C220.431 474.13 218.953 473.218 217.739 472.007C216.526 470.797 215.612 469.32 215.069 467.694L212.465 459.725C211.903 458.098 210.846 456.689 209.441 455.695C208.036 454.702 206.355 454.174 204.635 454.186C202.914 454.198 201.241 454.75 199.85 455.763C198.459 456.776 197.422 458.2 196.883 459.835L194.321 467.687C193.795 469.292 192.909 470.755 191.729 471.963C190.549 473.171 189.108 474.092 187.516 474.656L179.527 477.246C177.912 477.816 176.513 478.873 175.523 480.27C174.533 481.668 174 483.338 173.997 485.05C173.999 486.778 174.545 488.461 175.557 489.86C176.569 491.26 177.996 492.305 179.636 492.848L187.475 495.397C189.108 495.936 190.592 496.851 191.806 498.068C193.02 499.286 193.931 500.772 194.464 502.407L197.061 510.376C197.628 511.986 198.682 513.38 200.076 514.364" fill="url(#paint2_linear_36_1693)"/>
<path d="M377.113 322.208C375.784 317.901 373.949 314.047 371.61 310.644C369.324 307.188 366.559 304.237 363.316 301.792C360.126 299.346 356.458 297.512 352.311 296.289C348.164 295.013 343.645 294.375 338.753 294.375C329.981 294.375 322.166 296.581 315.307 300.994C308.449 305.407 303.052 311.893 299.118 320.453C295.237 328.96 293.296 339.327 293.296 351.555C293.296 363.89 295.237 374.337 299.118 382.897C302.999 391.457 308.396 397.969 315.307 402.435C322.219 406.848 330.247 409.055 339.391 409.055C347.685 409.055 354.863 407.46 360.924 404.27C367.038 401.08 371.743 396.561 375.039 390.712C378.336 384.811 379.984 377.899 379.984 369.977L386.683 371.014H342.342V347.887H408.614V367.505C408.614 381.488 405.637 393.583 399.682 403.791C393.727 413.999 385.54 421.868 375.119 427.397C364.699 432.873 352.736 435.611 339.232 435.611C324.186 435.611 310.974 432.235 299.597 425.483C288.272 418.678 279.42 409.028 273.04 396.534C266.713 383.987 263.55 369.1 263.55 351.874C263.55 338.689 265.411 326.913 269.132 316.545C272.907 306.178 278.171 297.379 284.923 290.148C291.675 282.865 299.597 277.335 308.688 273.561C317.779 269.733 327.668 267.819 338.355 267.819C347.393 267.819 355.82 269.148 363.635 271.806C371.451 274.411 378.389 278.133 384.45 282.971C390.564 287.809 395.588 293.551 399.522 300.197C403.457 306.843 406.035 314.18 407.258 322.208H377.113ZM490.177 435.771C477.896 435.771 467.289 433.219 458.357 428.115C449.479 422.958 442.647 415.674 437.862 406.263C433.077 396.8 430.684 385.661 430.684 372.848C430.684 360.248 433.077 349.189 437.862 339.673C442.7 330.103 449.452 322.66 458.118 317.343C466.784 311.973 476.966 309.288 488.662 309.288C496.212 309.288 503.336 310.511 510.035 312.957C516.787 315.349 522.742 319.071 527.899 324.122C533.109 329.172 537.203 335.605 540.18 343.421C543.158 351.183 544.646 360.434 544.646 371.174V380.026H444.242V360.567H516.973C516.92 355.038 515.724 350.12 513.385 345.813C511.045 341.454 507.775 338.025 503.575 335.526C499.428 333.027 494.59 331.778 489.061 331.778C483.16 331.778 477.976 333.213 473.51 336.084C469.044 338.902 465.561 342.623 463.063 347.249C460.617 351.821 459.368 356.845 459.314 362.322V379.308C459.314 386.432 460.617 392.547 463.222 397.65C465.827 402.701 469.469 406.582 474.148 409.294C478.826 411.952 484.303 413.281 490.576 413.281C494.776 413.281 498.578 412.697 501.98 411.527C505.383 410.304 508.334 408.523 510.833 406.184C513.331 403.844 515.219 400.947 516.495 397.491L543.45 400.521C541.749 407.646 538.506 413.866 533.721 419.183C528.989 424.446 522.928 428.54 515.538 431.464C508.148 434.335 499.694 435.771 490.177 435.771ZM569.069 433.378V310.883H596.663V331.698H598.098C600.65 324.68 604.877 319.204 610.778 315.269C616.68 311.282 623.724 309.288 631.912 309.288C640.206 309.288 647.197 311.309 652.886 315.349C658.628 319.337 662.669 324.786 665.008 331.698H666.284C668.995 324.893 673.568 319.47 680.001 315.429C686.487 311.335 694.17 309.288 703.048 309.288C714.32 309.288 723.517 312.85 730.642 319.975C737.766 327.099 741.328 337.493 741.328 351.157V433.378H712.379V355.623C712.379 348.02 710.359 342.464 706.318 338.955C702.277 335.393 697.333 333.612 691.485 333.612C684.52 333.612 679.07 335.792 675.136 340.151C671.255 344.458 669.314 350.067 669.314 356.978V433.378H641.003V354.426C641.003 348.1 639.089 343.049 635.261 339.274C631.487 335.499 626.542 333.612 620.428 333.612C616.281 333.612 612.506 334.675 609.104 336.802C605.701 338.875 602.99 341.826 600.969 345.654C598.949 349.429 597.939 353.842 597.939 358.892V433.378H569.069ZM874.848 270.052H904.435V376.756C904.435 388.453 901.671 398.74 896.141 407.619C890.665 416.498 882.956 423.436 873.014 428.434C863.072 433.378 851.455 435.85 838.164 435.85C824.819 435.85 813.176 433.378 803.233 428.434C793.291 423.436 785.582 416.498 780.106 407.619C774.63 398.74 771.892 388.453 771.892 376.756V270.052H801.479V374.284C801.479 381.089 802.968 387.15 805.945 392.467C808.975 397.783 813.229 401.957 818.705 404.987C824.181 407.965 830.667 409.453 838.164 409.453C845.66 409.453 852.146 407.965 857.622 404.987C863.152 401.957 867.405 397.783 870.382 392.467C873.36 387.15 874.848 381.089 874.848 374.284V270.052ZM966.181 270.052V433.378H936.594V270.052H966.181Z" fill="url(#paint3_linear_36_1693)"/>
<g clip-path="url(#clip0_36_1693)">
<path d="M1047.37 193.136C1048.7 191.945 1050.53 191.432 1052.27 191.788L1107.48 203.053C1109.22 203.409 1110.71 204.575 1111.46 206.213L1130.08 246.431C1131.21 248.866 1130.46 251.755 1128.31 253.353L1062.93 301.347C1061.66 302.286 1060.03 302.648 1058.47 302.329C1056.9 302.01 1055.57 301.042 1054.74 299.676L1013.4 229.904C1012.02 227.588 1012.48 224.638 1014.48 222.841L1047.37 193.136ZM1054.36 204.098C1053.49 204.518 1053.07 205.511 1053.39 206.415L1062.1 231.098L1027.67 227.018C1026.71 226.895 1025.81 227.549 1025.61 228.515C1025.41 229.481 1025.99 230.414 1026.92 230.698L1070.33 243.39L1070.63 243.451L1115.54 248.782C1116.5 248.906 1117.4 248.251 1117.59 247.285C1117.79 246.319 1117.21 245.387 1116.29 245.102L1083.03 235.392L1100.72 216.097C1101.36 215.39 1101.37 214.29 1100.73 213.583C1100.08 212.876 1099 212.752 1098.22 213.311L1072.92 231.508L1056.78 204.83C1056.27 204.009 1055.23 203.701 1054.36 204.098Z" fill="url(#paint4_linear_36_1693)"/>
</g>
<path d="M342.226 587.843C340.01 587.843 338.106 587.542 336.516 586.94C334.925 586.349 333.646 585.553 332.68 584.553C331.714 583.553 331.044 582.446 330.669 581.23L336.226 579.883C336.476 580.394 336.839 580.9 337.317 581.4C337.794 581.911 338.436 582.332 339.243 582.661C340.061 583.002 341.089 583.173 342.328 583.173C344.078 583.173 345.527 582.747 346.675 581.894C347.822 581.053 348.396 579.667 348.396 577.735V572.775H348.089C347.771 573.411 347.305 574.065 346.692 574.735C346.089 575.406 345.288 575.968 344.288 576.423C343.3 576.877 342.055 577.105 340.555 577.105C338.544 577.105 336.72 576.633 335.084 575.69C333.459 574.735 332.163 573.315 331.197 571.428C330.243 569.531 329.766 567.156 329.766 564.303C329.766 561.428 330.243 559.002 331.197 557.025C332.163 555.036 333.464 553.531 335.101 552.508C336.737 551.474 338.561 550.957 340.572 550.957C342.106 550.957 343.368 551.218 344.356 551.741C345.356 552.252 346.152 552.872 346.743 553.599C347.334 554.315 347.783 554.991 348.089 555.627H348.43V551.298H354.516V577.906C354.516 580.144 353.981 581.997 352.913 583.463C351.845 584.928 350.385 586.025 348.533 586.752C346.68 587.48 344.578 587.843 342.226 587.843ZM342.277 572.264C343.584 572.264 344.697 571.946 345.618 571.309C346.538 570.673 347.237 569.758 347.714 568.565C348.192 567.372 348.43 565.94 348.43 564.269C348.43 562.622 348.192 561.178 347.714 559.94C347.248 558.701 346.555 557.741 345.635 557.059C344.726 556.366 343.606 556.019 342.277 556.019C340.902 556.019 339.754 556.377 338.834 557.093C337.913 557.809 337.22 558.792 336.754 560.042C336.288 561.281 336.055 562.69 336.055 564.269C336.055 565.872 336.288 567.275 336.754 568.48C337.231 569.673 337.93 570.605 338.851 571.275C339.783 571.934 340.925 572.264 342.277 572.264ZM372.43 577.991C369.805 577.991 367.538 577.446 365.629 576.355C363.731 575.252 362.271 573.696 361.248 571.684C360.226 569.661 359.714 567.281 359.714 564.542C359.714 561.849 360.226 559.485 361.248 557.451C362.283 555.406 363.726 553.815 365.578 552.678C367.43 551.531 369.606 550.957 372.106 550.957C373.72 550.957 375.243 551.218 376.675 551.741C378.118 552.252 379.391 553.048 380.493 554.127C381.606 555.207 382.481 556.582 383.118 558.252C383.754 559.911 384.072 561.889 384.072 564.184V566.076H362.612V561.917H378.158C378.146 560.735 377.891 559.684 377.391 558.764C376.891 557.832 376.192 557.099 375.294 556.565C374.408 556.031 373.373 555.764 372.192 555.764C370.93 555.764 369.822 556.071 368.868 556.684C367.913 557.286 367.169 558.082 366.635 559.071C366.112 560.048 365.845 561.122 365.834 562.292V565.923C365.834 567.446 366.112 568.752 366.669 569.843C367.226 570.923 368.004 571.752 369.004 572.332C370.004 572.9 371.175 573.184 372.516 573.184C373.413 573.184 374.226 573.059 374.953 572.809C375.68 572.548 376.311 572.167 376.845 571.667C377.379 571.167 377.783 570.548 378.055 569.809L383.817 570.457C383.453 571.98 382.76 573.309 381.737 574.446C380.726 575.571 379.43 576.446 377.851 577.071C376.271 577.684 374.464 577.991 372.43 577.991ZM395.463 562.139V577.48H389.293V551.298H395.19V555.747H395.497C396.099 554.281 397.06 553.116 398.378 552.252C399.707 551.389 401.349 550.957 403.304 550.957C405.111 550.957 406.685 551.343 408.025 552.116C409.378 552.889 410.423 554.008 411.162 555.474C411.912 556.94 412.281 558.718 412.27 560.809V577.48H406.099V561.764C406.099 560.014 405.645 558.644 404.736 557.656C403.838 556.667 402.594 556.173 401.003 556.173C399.923 556.173 398.963 556.411 398.122 556.889C397.293 557.355 396.639 558.031 396.162 558.917C395.696 559.803 395.463 560.877 395.463 562.139ZM430.133 577.991C427.508 577.991 425.241 577.446 423.332 576.355C421.435 575.252 419.974 573.696 418.952 571.684C417.929 569.661 417.418 567.281 417.418 564.542C417.418 561.849 417.929 559.485 418.952 557.451C419.986 555.406 421.429 553.815 423.281 552.678C425.133 551.531 427.31 550.957 429.81 550.957C431.423 550.957 432.946 551.218 434.378 551.741C435.821 552.252 437.094 553.048 438.196 554.127C439.31 555.207 440.185 556.582 440.821 558.252C441.457 559.911 441.775 561.889 441.775 564.184V566.076H420.315V561.917H435.861C435.849 560.735 435.594 559.684 435.094 558.764C434.594 557.832 433.895 557.099 432.997 556.565C432.111 556.031 431.077 555.764 429.895 555.764C428.633 555.764 427.525 556.071 426.571 556.684C425.616 557.286 424.872 558.082 424.338 559.071C423.815 560.048 423.548 561.122 423.537 562.292V565.923C423.537 567.446 423.815 568.752 424.372 569.843C424.929 570.923 425.707 571.752 426.707 572.332C427.707 572.9 428.878 573.184 430.219 573.184C431.116 573.184 431.929 573.059 432.656 572.809C433.383 572.548 434.014 572.167 434.548 571.667C435.082 571.167 435.486 570.548 435.758 569.809L441.52 570.457C441.156 571.98 440.463 573.309 439.44 574.446C438.429 575.571 437.133 576.446 435.554 577.071C433.974 577.684 432.168 577.991 430.133 577.991ZM446.996 577.48V551.298H452.979V555.661H453.251C453.729 554.15 454.547 552.985 455.706 552.167C456.876 551.338 458.212 550.923 459.712 550.923C460.052 550.923 460.433 550.94 460.854 550.974C461.285 550.997 461.643 551.036 461.927 551.093V556.769C461.666 556.678 461.251 556.599 460.683 556.531C460.126 556.451 459.587 556.411 459.064 556.411C457.939 556.411 456.927 556.656 456.03 557.144C455.143 557.622 454.445 558.286 453.933 559.139C453.422 559.991 453.166 560.974 453.166 562.088V577.48H446.996ZM473.092 578.008C471.433 578.008 469.939 577.713 468.609 577.122C467.291 576.519 466.246 575.633 465.473 574.463C464.712 573.292 464.331 571.849 464.331 570.133C464.331 568.656 464.604 567.434 465.149 566.468C465.695 565.502 466.439 564.73 467.382 564.15C468.325 563.571 469.388 563.133 470.57 562.838C471.763 562.531 472.996 562.309 474.268 562.173C475.802 562.014 477.047 561.872 478.001 561.747C478.956 561.61 479.649 561.406 480.081 561.133C480.524 560.849 480.746 560.411 480.746 559.821V559.718C480.746 558.434 480.365 557.44 479.604 556.735C478.842 556.031 477.746 555.678 476.314 555.678C474.802 555.678 473.604 556.008 472.717 556.667C471.842 557.326 471.251 558.105 470.945 559.002L465.183 558.184C465.638 556.593 466.388 555.264 467.433 554.196C468.479 553.116 469.757 552.309 471.268 551.775C472.78 551.23 474.45 550.957 476.28 550.957C477.541 550.957 478.797 551.105 480.047 551.4C481.297 551.696 482.439 552.184 483.473 552.866C484.507 553.536 485.337 554.451 485.962 555.61C486.598 556.769 486.916 558.218 486.916 559.957V577.48H480.984V573.883H480.78C480.405 574.61 479.876 575.292 479.195 575.928C478.524 576.553 477.677 577.059 476.655 577.446C475.643 577.821 474.456 578.008 473.092 578.008ZM474.695 573.474C475.933 573.474 477.007 573.23 477.916 572.741C478.825 572.241 479.524 571.582 480.013 570.764C480.513 569.946 480.763 569.053 480.763 568.088V565.002C480.57 565.161 480.24 565.309 479.774 565.446C479.32 565.582 478.808 565.701 478.24 565.803C477.672 565.906 477.109 565.997 476.552 566.076C475.996 566.156 475.513 566.224 475.104 566.281C474.183 566.406 473.359 566.61 472.632 566.894C471.905 567.178 471.331 567.576 470.91 568.088C470.49 568.588 470.28 569.235 470.28 570.031C470.28 571.167 470.695 572.025 471.524 572.605C472.354 573.184 473.41 573.474 474.695 573.474ZM506.195 551.298V556.071H491.143V551.298H506.195ZM494.859 545.025H501.03V569.605C501.03 570.434 501.155 571.071 501.405 571.514C501.666 571.946 502.007 572.241 502.427 572.4C502.848 572.559 503.314 572.639 503.825 572.639C504.212 572.639 504.564 572.61 504.882 572.553C505.212 572.497 505.462 572.446 505.632 572.4L506.672 577.224C506.342 577.338 505.871 577.463 505.257 577.599C504.655 577.735 503.916 577.815 503.041 577.838C501.496 577.883 500.104 577.65 498.865 577.139C497.626 576.616 496.643 575.809 495.916 574.718C495.2 573.627 494.848 572.264 494.859 570.627V545.025ZM511.355 577.48V551.298H517.525V577.48H511.355ZM514.457 547.582C513.48 547.582 512.639 547.258 511.935 546.61C511.23 545.951 510.878 545.161 510.878 544.241C510.878 543.309 511.23 542.519 511.935 541.872C512.639 541.213 513.48 540.883 514.457 540.883C515.446 540.883 516.287 541.213 516.98 541.872C517.685 542.519 518.037 543.309 518.037 544.241C518.037 545.161 517.685 545.951 516.98 546.61C516.287 547.258 515.446 547.582 514.457 547.582ZM530.041 562.139V577.48H523.871V551.298H529.768V555.747H530.075C530.677 554.281 531.638 553.116 532.956 552.252C534.285 551.389 535.927 550.957 537.882 550.957C539.689 550.957 541.263 551.343 542.604 552.116C543.956 552.889 545.001 554.008 545.74 555.474C546.49 556.94 546.859 558.718 546.848 560.809V577.48H540.677V561.764C540.677 560.014 540.223 558.644 539.314 557.656C538.416 556.667 537.172 556.173 535.581 556.173C534.501 556.173 533.541 556.411 532.7 556.889C531.871 557.355 531.217 558.031 530.74 558.917C530.274 559.803 530.041 560.877 530.041 562.139ZM564.507 587.843C562.291 587.843 560.388 587.542 558.797 586.94C557.206 586.349 555.927 585.553 554.962 584.553C553.996 583.553 553.325 582.446 552.95 581.23L558.507 579.883C558.757 580.394 559.121 580.9 559.598 581.4C560.075 581.911 560.717 582.332 561.524 582.661C562.342 583.002 563.371 583.173 564.609 583.173C566.359 583.173 567.808 582.747 568.956 581.894C570.104 581.053 570.677 579.667 570.677 577.735V572.775H570.371C570.052 573.411 569.587 574.065 568.973 574.735C568.371 575.406 567.57 575.968 566.57 576.423C565.581 576.877 564.337 577.105 562.837 577.105C560.825 577.105 559.001 576.633 557.365 575.69C555.74 574.735 554.445 573.315 553.479 571.428C552.524 569.531 552.047 567.156 552.047 564.303C552.047 561.428 552.524 559.002 553.479 557.025C554.445 555.036 555.746 553.531 557.382 552.508C559.018 551.474 560.842 550.957 562.854 550.957C564.388 550.957 565.649 551.218 566.638 551.741C567.638 552.252 568.433 552.872 569.024 553.599C569.615 554.315 570.064 554.991 570.371 555.627H570.712V551.298H576.797V577.906C576.797 580.144 576.263 581.997 575.195 583.463C574.126 584.928 572.666 586.025 570.814 586.752C568.962 587.48 566.859 587.843 564.507 587.843ZM564.558 572.264C565.865 572.264 566.979 571.946 567.899 571.309C568.82 570.673 569.518 569.758 569.996 568.565C570.473 567.372 570.712 565.94 570.712 564.269C570.712 562.622 570.473 561.178 569.996 559.94C569.53 558.701 568.837 557.741 567.916 557.059C567.007 556.366 565.888 556.019 564.558 556.019C563.183 556.019 562.035 556.377 561.115 557.093C560.195 557.809 559.501 558.792 559.035 560.042C558.57 561.281 558.337 562.69 558.337 564.269C558.337 565.872 558.57 567.275 559.035 568.48C559.513 569.673 560.212 570.605 561.132 571.275C562.064 571.934 563.206 572.264 564.558 572.264ZM602.561 578.008C600.902 578.008 599.408 577.713 598.078 577.122C596.76 576.519 595.714 575.633 594.942 574.463C594.18 573.292 593.8 571.849 593.8 570.133C593.8 568.656 594.072 567.434 594.618 566.468C595.163 565.502 595.908 564.73 596.851 564.15C597.794 563.571 598.856 563.133 600.038 562.838C601.231 562.531 602.464 562.309 603.737 562.173C605.271 562.014 606.516 561.872 607.47 561.747C608.425 561.61 609.118 561.406 609.55 561.133C609.993 560.849 610.214 560.411 610.214 559.821V559.718C610.214 558.434 609.834 557.44 609.072 556.735C608.311 556.031 607.214 555.678 605.783 555.678C604.271 555.678 603.072 556.008 602.186 556.667C601.311 557.326 600.72 558.105 600.413 559.002L594.652 558.184C595.106 556.593 595.856 555.264 596.902 554.196C597.947 553.116 599.226 552.309 600.737 551.775C602.248 551.23 603.919 550.957 605.748 550.957C607.01 550.957 608.266 551.105 609.516 551.4C610.766 551.696 611.908 552.184 612.942 552.866C613.976 553.536 614.805 554.451 615.43 555.61C616.067 556.769 616.385 558.218 616.385 559.957V577.48H610.453V573.883H610.248C609.873 574.61 609.345 575.292 608.663 575.928C607.993 576.553 607.146 577.059 606.123 577.446C605.112 577.821 603.925 578.008 602.561 578.008ZM604.163 573.474C605.402 573.474 606.476 573.23 607.385 572.741C608.294 572.241 608.993 571.582 609.481 570.764C609.981 569.946 610.231 569.053 610.231 568.088V565.002C610.038 565.161 609.709 565.309 609.243 565.446C608.788 565.582 608.277 565.701 607.709 565.803C607.141 565.906 606.578 565.997 606.021 566.076C605.464 566.156 604.981 566.224 604.572 566.281C603.652 566.406 602.828 566.61 602.101 566.894C601.373 567.178 600.8 567.576 600.379 568.088C599.959 568.588 599.748 569.235 599.748 570.031C599.748 571.167 600.163 572.025 600.993 572.605C601.822 573.184 602.879 573.474 604.163 573.474ZM634.01 577.991C631.396 577.991 629.152 577.417 627.277 576.269C625.413 575.122 623.976 573.536 622.964 571.514C621.964 569.48 621.464 567.139 621.464 564.491C621.464 561.832 621.976 559.485 622.998 557.451C624.021 555.406 625.464 553.815 627.328 552.678C629.203 551.531 631.419 550.957 633.976 550.957C636.101 550.957 637.981 551.349 639.618 552.133C641.266 552.906 642.578 554.002 643.555 555.423C644.533 556.832 645.089 558.48 645.226 560.366H639.328C639.089 559.105 638.521 558.053 637.623 557.213C636.737 556.36 635.55 555.934 634.061 555.934C632.8 555.934 631.692 556.275 630.737 556.957C629.783 557.627 629.038 558.593 628.504 559.855C627.981 561.116 627.72 562.627 627.72 564.389C627.72 566.173 627.981 567.707 628.504 568.991C629.027 570.264 629.76 571.247 630.703 571.94C631.658 572.622 632.777 572.963 634.061 572.963C634.97 572.963 635.783 572.792 636.498 572.451C637.226 572.099 637.834 571.593 638.322 570.934C638.811 570.275 639.146 569.474 639.328 568.531H645.226C645.078 570.383 644.533 572.025 643.589 573.457C642.646 574.877 641.362 575.991 639.737 576.798C638.112 577.593 636.203 577.991 634.01 577.991ZM663.366 551.298V556.071H648.315V551.298H663.366ZM652.031 545.025H658.202V569.605C658.202 570.434 658.327 571.071 658.577 571.514C658.838 571.946 659.179 572.241 659.599 572.4C660.02 572.559 660.486 572.639 660.997 572.639C661.383 572.639 661.736 572.61 662.054 572.553C662.383 572.497 662.633 572.446 662.804 572.4L663.844 577.224C663.514 577.338 663.043 577.463 662.429 577.599C661.827 577.735 661.088 577.815 660.213 577.838C658.668 577.883 657.275 577.65 656.037 577.139C654.798 576.616 653.815 575.809 653.088 574.718C652.372 573.627 652.02 572.264 652.031 570.627V545.025ZM668.527 577.48V551.298H674.697V577.48H668.527ZM671.629 547.582C670.652 547.582 669.811 547.258 669.106 546.61C668.402 545.951 668.05 545.161 668.05 544.241C668.05 543.309 668.402 542.519 669.106 541.872C669.811 541.213 670.652 540.883 671.629 540.883C672.618 540.883 673.459 541.213 674.152 541.872C674.856 542.519 675.209 543.309 675.209 544.241C675.209 545.161 674.856 545.951 674.152 546.61C673.459 547.258 672.618 547.582 671.629 547.582ZM692.463 577.991C689.906 577.991 687.69 577.428 685.815 576.303C683.94 575.178 682.486 573.605 681.452 571.582C680.429 569.559 679.918 567.196 679.918 564.491C679.918 561.786 680.429 559.417 681.452 557.383C682.486 555.349 683.94 553.769 685.815 552.644C687.69 551.519 689.906 550.957 692.463 550.957C695.02 550.957 697.236 551.519 699.111 552.644C700.986 553.769 702.435 555.349 703.457 557.383C704.491 559.417 705.008 561.786 705.008 564.491C705.008 567.196 704.491 569.559 703.457 571.582C702.435 573.605 700.986 575.178 699.111 576.303C697.236 577.428 695.02 577.991 692.463 577.991ZM692.497 573.048C693.883 573.048 695.043 572.667 695.974 571.906C696.906 571.133 697.599 570.099 698.054 568.803C698.52 567.508 698.753 566.065 698.753 564.474C698.753 562.872 698.52 561.423 698.054 560.127C697.599 558.821 696.906 557.781 695.974 557.008C695.043 556.235 693.883 555.849 692.497 555.849C691.077 555.849 689.895 556.235 688.952 557.008C688.02 557.781 687.321 558.821 686.855 560.127C686.4 561.423 686.173 562.872 686.173 564.474C686.173 566.065 686.4 567.508 686.855 568.803C687.321 570.099 688.02 571.133 688.952 571.906C689.895 572.667 691.077 573.048 692.497 573.048ZM716.416 562.139V577.48H710.246V551.298H716.143V555.747H716.45C717.052 554.281 718.013 553.116 719.331 552.252C720.66 551.389 722.302 550.957 724.257 550.957C726.064 550.957 727.638 551.343 728.979 552.116C730.331 552.889 731.376 554.008 732.115 555.474C732.865 556.94 733.234 558.718 733.223 560.809V577.48H727.052V561.764C727.052 560.014 726.598 558.644 725.689 557.656C724.791 556.667 723.547 556.173 721.956 556.173C720.876 556.173 719.916 556.411 719.075 556.889C718.246 557.355 717.592 558.031 717.115 558.917C716.649 559.803 716.416 560.877 716.416 562.139ZM747.03 578.008C745.371 578.008 743.876 577.713 742.547 577.122C741.229 576.519 740.183 575.633 739.41 574.463C738.649 573.292 738.268 571.849 738.268 570.133C738.268 568.656 738.541 567.434 739.087 566.468C739.632 565.502 740.376 564.73 741.32 564.15C742.263 563.571 743.325 563.133 744.507 562.838C745.7 562.531 746.933 562.309 748.206 562.173C749.74 562.014 750.984 561.872 751.939 561.747C752.893 561.61 753.587 561.406 754.018 561.133C754.462 560.849 754.683 560.411 754.683 559.821V559.718C754.683 558.434 754.302 557.44 753.541 556.735C752.78 556.031 751.683 555.678 750.251 555.678C748.74 555.678 747.541 556.008 746.655 556.667C745.78 557.326 745.189 558.105 744.882 559.002L739.121 558.184C739.575 556.593 740.325 555.264 741.371 554.196C742.416 553.116 743.695 552.309 745.206 551.775C746.717 551.23 748.388 550.957 750.217 550.957C751.479 550.957 752.734 551.105 753.984 551.4C755.234 551.696 756.376 552.184 757.41 552.866C758.445 553.536 759.274 554.451 759.899 555.61C760.535 556.769 760.854 558.218 760.854 559.957V577.48H754.922V573.883H754.717C754.342 574.61 753.814 575.292 753.132 575.928C752.462 576.553 751.615 577.059 750.592 577.446C749.581 577.821 748.393 578.008 747.03 578.008ZM748.632 573.474C749.871 573.474 750.945 573.23 751.854 572.741C752.763 572.241 753.462 571.582 753.95 570.764C754.45 569.946 754.7 569.053 754.7 568.088V565.002C754.507 565.161 754.177 565.309 753.712 565.446C753.257 565.582 752.746 565.701 752.177 565.803C751.609 565.906 751.047 565.997 750.49 566.076C749.933 566.156 749.45 566.224 749.041 566.281C748.121 566.406 747.297 566.61 746.57 566.894C745.842 567.178 745.268 567.576 744.848 568.088C744.427 568.588 744.217 569.235 744.217 570.031C744.217 571.167 744.632 572.025 745.462 572.605C746.291 573.184 747.348 573.474 748.632 573.474ZM767.331 577.48V542.571H773.501V555.627H773.757C774.075 554.991 774.524 554.315 775.104 553.599C775.683 552.872 776.467 552.252 777.456 551.741C778.445 551.218 779.706 550.957 781.24 550.957C783.263 550.957 785.087 551.474 786.712 552.508C788.348 553.531 789.643 555.048 790.598 557.059C791.564 559.059 792.047 561.514 792.047 564.423C792.047 567.298 791.575 569.741 790.632 571.752C789.689 573.764 788.405 575.298 786.78 576.355C785.155 577.411 783.314 577.94 781.257 577.94C779.757 577.94 778.513 577.69 777.524 577.19C776.535 576.69 775.74 576.088 775.138 575.383C774.547 574.667 774.087 573.991 773.757 573.355H773.399V577.48H767.331ZM773.382 564.389C773.382 566.082 773.621 567.565 774.098 568.838C774.587 570.11 775.285 571.105 776.195 571.821C777.115 572.525 778.229 572.877 779.535 572.877C780.899 572.877 782.041 572.514 782.962 571.786C783.882 571.048 784.575 570.042 785.041 568.769C785.518 567.485 785.757 566.025 785.757 564.389C785.757 562.764 785.524 561.321 785.058 560.059C784.592 558.798 783.899 557.809 782.979 557.093C782.058 556.377 780.91 556.019 779.535 556.019C778.217 556.019 777.098 556.366 776.177 557.059C775.257 557.752 774.558 558.724 774.081 559.974C773.615 561.224 773.382 562.696 773.382 564.389ZM803.463 542.571V577.48H797.293V542.571H803.463ZM821.399 577.991C818.774 577.991 816.507 577.446 814.598 576.355C812.7 575.252 811.24 573.696 810.217 571.684C809.195 569.661 808.683 567.281 808.683 564.542C808.683 561.849 809.195 559.485 810.217 557.451C811.251 555.406 812.695 553.815 814.547 552.678C816.399 551.531 818.575 550.957 821.075 550.957C822.689 550.957 824.212 551.218 825.643 551.741C827.087 552.252 828.359 553.048 829.462 554.127C830.575 555.207 831.45 556.582 832.087 558.252C832.723 559.911 833.041 561.889 833.041 564.184V566.076H811.581V561.917H827.126C827.115 560.735 826.859 559.684 826.359 558.764C825.859 557.832 825.16 557.099 824.263 556.565C823.376 556.031 822.342 555.764 821.16 555.764C819.899 555.764 818.791 556.071 817.837 556.684C816.882 557.286 816.138 558.082 815.604 559.071C815.081 560.048 814.814 561.122 814.802 562.292V565.923C814.802 567.446 815.081 568.752 815.638 569.843C816.195 570.923 816.973 571.752 817.973 572.332C818.973 572.9 820.143 573.184 821.484 573.184C822.382 573.184 823.195 573.059 823.922 572.809C824.649 572.548 825.28 572.167 825.814 571.667C826.348 571.167 826.751 570.548 827.024 569.809L832.785 570.457C832.422 571.98 831.729 573.309 830.706 574.446C829.695 575.571 828.399 576.446 826.82 577.071C825.24 577.684 823.433 577.991 821.399 577.991ZM872.446 542.571H878.77V565.377C878.77 567.877 878.179 570.076 876.997 571.974C875.827 573.872 874.179 575.355 872.054 576.423C869.929 577.48 867.446 578.008 864.605 578.008C861.753 578.008 859.264 577.48 857.139 576.423C855.014 575.355 853.366 573.872 852.196 571.974C851.025 570.076 850.44 567.877 850.44 565.377V542.571H856.764V564.849C856.764 566.303 857.082 567.599 857.719 568.735C858.366 569.872 859.275 570.764 860.446 571.411C861.616 572.048 863.003 572.366 864.605 572.366C866.207 572.366 867.594 572.048 868.764 571.411C869.946 570.764 870.855 569.872 871.491 568.735C872.128 567.599 872.446 566.303 872.446 564.849V542.571ZM891.967 542.571V577.48H885.643V542.571H891.967Z" fill="#2B2B2B"/>
<defs>
<radialGradient id="paint0_radial_36_1693" cx="0" cy="0" r="1" gradientUnits="userSpaceOnUse" gradientTransform="translate(844.18 405.685) rotate(-19.6476) scale(457.852 375.675)">
<stop stop-color="#C700E7"/>
<stop offset="1" stop-color="#C700E7" stop-opacity="0"/>
</radialGradient>
<radialGradient id="paint1_radial_36_1693" cx="0" cy="0" r="1" gradientUnits="userSpaceOnUse" gradientTransform="translate(408.826 386.953) rotate(-23.9403) scale(391.739 376.461)">
<stop stop-color="#6303FF"/>
<stop offset="1" stop-color="#6303FF" stop-opacity="0"/>
</radialGradient>
<linearGradient id="paint2_linear_36_1693" x1="84.9116" y1="385.495" x2="241.86" y2="394.564" gradientUnits="userSpaceOnUse">
<stop stop-color="#C700E7"/>
<stop offset="1" stop-color="#6303FF"/>
</linearGradient>
<linearGradient id="paint3_linear_36_1693" x1="251.587" y1="252.077" x2="997.127" y2="367.807" gradientUnits="userSpaceOnUse">
<stop stop-color="#C700E7"/>
<stop offset="1" stop-color="#6303FF"/>
</linearGradient>
<linearGradient id="paint4_linear_36_1693" x1="1018.1" y1="199.559" x2="1138.97" y2="232.495" gradientUnits="userSpaceOnUse">
<stop stop-color="#C700E7"/>
<stop offset="1" stop-color="#6303FF"/>
</linearGradient>
<clipPath id="clip0_36_1693">
<rect width="120.193" height="120.193" fill="white" transform="translate(1022.12 179.885) rotate(11.5332)"/>
</clipPath>
</defs>
</svg>
