<svg width="1224" height="512" viewBox="0 0 1224 512" fill="none" xmlns="http://www.w3.org/2000/svg">
<path d="M133.309 335.696C134.66 336.65 136.207 337.292 137.837 337.575C139.467 337.858 141.14 337.774 142.733 337.331C144.327 336.887 145.803 336.095 147.052 335.011C148.302 333.927 149.295 332.579 149.96 331.064L155.236 315.03C156.519 311.172 158.683 307.667 161.557 304.791C164.43 301.915 167.934 299.748 171.791 298.461L187.126 293.48C189.305 292.722 191.19 291.295 192.512 289.403C193.532 287.968 194.196 286.312 194.45 284.57C194.704 282.828 194.54 281.051 193.972 279.385C193.404 277.719 192.448 276.212 191.182 274.988C189.917 273.765 188.378 272.86 186.694 272.348L171.517 267.414C167.658 266.134 164.15 263.973 161.272 261.102C158.394 258.231 156.224 254.729 154.934 250.873L149.953 235.545C149.187 233.373 147.765 231.493 145.883 230.166C143.99 228.861 141.745 228.162 139.445 228.162C137.146 228.162 134.901 228.861 133.007 230.166C131.097 231.517 129.658 233.435 128.896 235.648L123.853 251.168C122.566 254.923 120.443 258.337 117.642 261.15C114.842 263.964 111.438 266.103 107.689 267.407L92.3399 272.382C90.1559 273.154 88.2668 274.588 86.9354 276.483C85.6041 278.379 84.8968 280.643 84.9119 282.959C84.9269 285.276 85.6637 287.53 87.0196 289.408C88.3754 291.286 90.2831 292.695 92.477 293.439L107.661 298.372C112.584 300.024 116.912 303.089 120.105 307.184C121.928 309.534 123.332 312.173 124.257 314.996L129.246 330.303C130.013 332.482 131.438 334.367 133.323 335.696M200.09 377.357C201.485 378.343 203.151 378.869 204.859 378.865C206.555 378.87 208.211 378.35 209.601 377.378C211.031 376.368 212.102 374.927 212.657 373.266L215.206 365.434C215.745 363.808 216.655 362.33 217.865 361.117C219.075 359.904 220.55 358.989 222.175 358.445L230.164 355.855C231.775 355.283 233.17 354.226 234.158 352.83C235.145 351.434 235.677 349.767 235.68 348.057C235.68 346.303 235.119 344.594 234.078 343.181C233.038 341.768 231.573 340.725 229.897 340.205L222.058 337.669C220.431 337.13 218.953 336.218 217.739 335.007C216.526 333.797 215.612 332.32 215.069 330.694L212.465 322.725C211.903 321.098 210.846 319.689 209.441 318.695C208.036 317.702 206.355 317.174 204.635 317.186C202.914 317.198 201.241 317.75 199.85 318.763C198.459 319.776 197.422 321.2 196.883 322.835L194.321 330.687C193.795 332.292 192.909 333.755 191.729 334.963C190.549 336.171 189.108 337.092 187.516 337.656L179.527 340.246C177.912 340.816 176.513 341.873 175.523 343.27C174.533 344.668 174 346.338 173.997 348.05C173.999 349.778 174.545 351.461 175.557 352.86C176.569 354.26 177.996 355.305 179.636 355.848L187.475 358.397C189.108 358.936 190.592 359.851 191.806 361.068C193.02 362.286 193.931 363.772 194.464 365.407L197.061 373.376C197.628 374.986 198.682 376.38 200.076 377.364" fill="url(#paint0_linear_36_1484)"/>
<path d="M377.113 185.208C375.784 180.901 373.949 177.047 371.61 173.644C369.324 170.188 366.559 167.237 363.316 164.792C360.126 162.346 356.458 160.512 352.311 159.289C348.164 158.013 343.645 157.375 338.753 157.375C329.981 157.375 322.166 159.581 315.307 163.994C308.449 168.407 303.052 174.893 299.118 183.453C295.237 191.96 293.296 202.327 293.296 214.555C293.296 226.89 295.237 237.337 299.118 245.897C302.999 254.457 308.396 260.969 315.307 265.435C322.219 269.848 330.247 272.055 339.391 272.055C347.685 272.055 354.863 270.46 360.924 267.27C367.038 264.08 371.743 259.561 375.039 253.712C378.336 247.811 379.984 240.899 379.984 232.977L386.683 234.014H342.342V210.887H408.614V230.505C408.614 244.488 405.637 256.583 399.682 266.791C393.727 276.999 385.54 284.868 375.119 290.397C364.699 295.873 352.736 298.611 339.232 298.611C324.186 298.611 310.974 295.235 299.597 288.483C288.272 281.678 279.42 272.028 273.04 259.534C266.713 246.987 263.55 232.1 263.55 214.874C263.55 201.689 265.411 189.913 269.132 179.545C272.907 169.178 278.171 160.379 284.923 153.148C291.675 145.865 299.597 140.335 308.688 136.561C317.779 132.733 327.668 130.819 338.355 130.819C347.393 130.819 355.82 132.148 363.635 134.806C371.451 137.411 378.389 141.133 384.45 145.971C390.564 150.809 395.588 156.551 399.522 163.197C403.457 169.843 406.035 177.18 407.258 185.208H377.113ZM490.177 298.771C477.896 298.771 467.289 296.219 458.357 291.115C449.479 285.958 442.647 278.674 437.862 269.263C433.077 259.8 430.684 248.661 430.684 235.848C430.684 223.248 433.077 212.189 437.862 202.673C442.7 193.103 449.452 185.66 458.118 180.343C466.784 174.973 476.966 172.288 488.662 172.288C496.212 172.288 503.336 173.511 510.035 175.957C516.787 178.349 522.742 182.071 527.899 187.122C533.109 192.172 537.203 198.605 540.18 206.421C543.158 214.183 544.646 223.434 544.646 234.174V243.026H444.242V223.567H516.973C516.92 218.038 515.724 213.12 513.385 208.813C511.045 204.454 507.775 201.025 503.575 198.526C499.428 196.027 494.59 194.778 489.061 194.778C483.16 194.778 477.976 196.213 473.51 199.084C469.044 201.902 465.561 205.623 463.063 210.249C460.617 214.821 459.368 219.845 459.314 225.322V242.308C459.314 249.432 460.617 255.547 463.222 260.65C465.827 265.701 469.469 269.582 474.148 272.294C478.826 274.952 484.303 276.281 490.576 276.281C494.776 276.281 498.578 275.697 501.98 274.527C505.383 273.304 508.334 271.523 510.833 269.184C513.331 266.844 515.219 263.947 516.495 260.491L543.45 263.521C541.749 270.646 538.506 276.866 533.721 282.183C528.989 287.446 522.928 291.54 515.538 294.464C508.148 297.335 499.694 298.771 490.177 298.771ZM569.069 296.378V173.883H596.663V194.698H598.098C600.65 187.68 604.877 182.204 610.778 178.269C616.68 174.282 623.724 172.288 631.912 172.288C640.206 172.288 647.197 174.309 652.886 178.349C658.628 182.337 662.669 187.786 665.008 194.698H666.284C668.995 187.893 673.568 182.47 680.001 178.429C686.487 174.335 694.17 172.288 703.048 172.288C714.32 172.288 723.517 175.85 730.642 182.975C737.766 190.099 741.328 200.493 741.328 214.157V296.378H712.379V218.623C712.379 211.02 710.359 205.464 706.318 201.955C702.277 198.393 697.333 196.612 691.485 196.612C684.52 196.612 679.07 198.792 675.136 203.151C671.255 207.458 669.314 213.067 669.314 219.978V296.378H641.003V217.426C641.003 211.1 639.089 206.049 635.261 202.274C631.487 198.499 626.542 196.612 620.428 196.612C616.281 196.612 612.506 197.675 609.104 199.802C605.701 201.875 602.99 204.826 600.969 208.654C598.949 212.429 597.939 216.842 597.939 221.892V296.378H569.069ZM874.848 133.052H904.435V239.756C904.435 251.453 901.671 261.74 896.141 270.619C890.665 279.498 882.956 286.436 873.014 291.434C863.072 296.378 851.455 298.85 838.164 298.85C824.819 298.85 813.176 296.378 803.233 291.434C793.291 286.436 785.582 279.498 780.106 270.619C774.63 261.74 771.892 251.453 771.892 239.756V133.052H801.479V237.284C801.479 244.089 802.968 250.15 805.945 255.467C808.975 260.783 813.229 264.957 818.705 267.987C824.181 270.965 830.667 272.453 838.164 272.453C845.66 272.453 852.146 270.965 857.622 267.987C863.152 264.957 867.405 260.783 870.382 255.467C873.36 250.15 874.848 244.089 874.848 237.284V133.052ZM966.181 133.052V296.378H936.594V133.052H966.181Z" fill="url(#paint1_linear_36_1484)"/>
<g clip-path="url(#clip0_36_1484)">
<path d="M1047.37 56.1365C1048.7 54.9446 1050.53 54.4315 1052.27 54.7882L1107.48 66.0527C1109.22 66.4094 1110.71 67.5754 1111.46 69.2126L1130.08 109.431C1131.21 111.866 1130.46 114.755 1128.31 116.353L1062.93 164.347C1061.66 165.286 1060.03 165.648 1058.47 165.329C1056.9 165.01 1055.57 164.042 1054.74 162.676L1013.4 92.9042C1012.02 90.5877 1012.48 87.6384 1014.48 85.8415L1047.37 56.1365ZM1054.36 67.098C1053.49 67.5181 1053.07 68.5109 1053.39 69.4145L1062.1 94.0977L1027.67 90.018C1026.71 89.8945 1025.81 90.5494 1025.61 91.5154C1025.41 92.4815 1025.99 93.4137 1026.92 93.6981L1070.33 106.39L1070.63 106.451L1115.54 111.782C1116.5 111.906 1117.4 111.251 1117.59 110.285C1117.79 109.319 1117.21 108.387 1116.29 108.102L1083.03 98.3918L1100.72 79.0968C1101.36 78.3903 1101.37 77.29 1100.73 76.5831C1100.08 75.8762 1099 75.7523 1098.22 76.3109L1072.92 94.5081L1056.78 67.8302C1056.27 67.0087 1055.23 66.7008 1054.36 67.098Z" fill="url(#paint2_linear_36_1484)"/>
</g>
<path d="M342.226 450.843C340.01 450.843 338.106 450.542 336.516 449.94C334.925 449.349 333.646 448.553 332.68 447.553C331.714 446.553 331.044 445.446 330.669 444.23L336.226 442.883C336.476 443.394 336.839 443.9 337.317 444.4C337.794 444.911 338.436 445.332 339.243 445.661C340.061 446.002 341.089 446.173 342.328 446.173C344.078 446.173 345.527 445.747 346.675 444.894C347.822 444.053 348.396 442.667 348.396 440.735V435.775H348.089C347.771 436.411 347.305 437.065 346.692 437.735C346.089 438.406 345.288 438.968 344.288 439.423C343.3 439.877 342.055 440.105 340.555 440.105C338.544 440.105 336.72 439.633 335.084 438.69C333.459 437.735 332.163 436.315 331.197 434.428C330.243 432.531 329.766 430.156 329.766 427.303C329.766 424.428 330.243 422.002 331.197 420.025C332.163 418.036 333.464 416.531 335.101 415.508C336.737 414.474 338.561 413.957 340.572 413.957C342.106 413.957 343.368 414.218 344.356 414.741C345.356 415.252 346.152 415.872 346.743 416.599C347.334 417.315 347.783 417.991 348.089 418.627H348.43V414.298H354.516V440.906C354.516 443.144 353.981 444.997 352.913 446.463C351.845 447.928 350.385 449.025 348.533 449.752C346.68 450.48 344.578 450.843 342.226 450.843ZM342.277 435.264C343.584 435.264 344.697 434.946 345.618 434.309C346.538 433.673 347.237 432.758 347.714 431.565C348.192 430.372 348.43 428.94 348.43 427.269C348.43 425.622 348.192 424.178 347.714 422.94C347.248 421.701 346.555 420.741 345.635 420.059C344.726 419.366 343.606 419.019 342.277 419.019C340.902 419.019 339.754 419.377 338.834 420.093C337.913 420.809 337.22 421.792 336.754 423.042C336.288 424.281 336.055 425.69 336.055 427.269C336.055 428.872 336.288 430.275 336.754 431.48C337.231 432.673 337.93 433.605 338.851 434.275C339.783 434.934 340.925 435.264 342.277 435.264ZM372.43 440.991C369.805 440.991 367.538 440.446 365.629 439.355C363.731 438.252 362.271 436.696 361.248 434.684C360.226 432.661 359.714 430.281 359.714 427.542C359.714 424.849 360.226 422.485 361.248 420.451C362.283 418.406 363.726 416.815 365.578 415.678C367.43 414.531 369.606 413.957 372.106 413.957C373.72 413.957 375.243 414.218 376.675 414.741C378.118 415.252 379.391 416.048 380.493 417.127C381.606 418.207 382.481 419.582 383.118 421.252C383.754 422.911 384.072 424.889 384.072 427.184V429.076H362.612V424.917H378.158C378.146 423.735 377.891 422.684 377.391 421.764C376.891 420.832 376.192 420.099 375.294 419.565C374.408 419.031 373.373 418.764 372.192 418.764C370.93 418.764 369.822 419.071 368.868 419.684C367.913 420.286 367.169 421.082 366.635 422.071C366.112 423.048 365.845 424.122 365.834 425.292V428.923C365.834 430.446 366.112 431.752 366.669 432.843C367.226 433.923 368.004 434.752 369.004 435.332C370.004 435.9 371.175 436.184 372.516 436.184C373.413 436.184 374.226 436.059 374.953 435.809C375.68 435.548 376.311 435.167 376.845 434.667C377.379 434.167 377.783 433.548 378.055 432.809L383.817 433.457C383.453 434.98 382.76 436.309 381.737 437.446C380.726 438.571 379.43 439.446 377.851 440.071C376.271 440.684 374.464 440.991 372.43 440.991ZM395.463 425.139V440.48H389.293V414.298H395.19V418.747H395.497C396.099 417.281 397.06 416.116 398.378 415.252C399.707 414.389 401.349 413.957 403.304 413.957C405.111 413.957 406.685 414.343 408.025 415.116C409.378 415.889 410.423 417.008 411.162 418.474C411.912 419.94 412.281 421.718 412.27 423.809V440.48H406.099V424.764C406.099 423.014 405.645 421.644 404.736 420.656C403.838 419.667 402.594 419.173 401.003 419.173C399.923 419.173 398.963 419.411 398.122 419.889C397.293 420.355 396.639 421.031 396.162 421.917C395.696 422.803 395.463 423.877 395.463 425.139ZM430.133 440.991C427.508 440.991 425.241 440.446 423.332 439.355C421.435 438.252 419.974 436.696 418.952 434.684C417.929 432.661 417.418 430.281 417.418 427.542C417.418 424.849 417.929 422.485 418.952 420.451C419.986 418.406 421.429 416.815 423.281 415.678C425.133 414.531 427.31 413.957 429.81 413.957C431.423 413.957 432.946 414.218 434.378 414.741C435.821 415.252 437.094 416.048 438.196 417.127C439.31 418.207 440.185 419.582 440.821 421.252C441.457 422.911 441.775 424.889 441.775 427.184V429.076H420.315V424.917H435.861C435.849 423.735 435.594 422.684 435.094 421.764C434.594 420.832 433.895 420.099 432.997 419.565C432.111 419.031 431.077 418.764 429.895 418.764C428.633 418.764 427.525 419.071 426.571 419.684C425.616 420.286 424.872 421.082 424.338 422.071C423.815 423.048 423.548 424.122 423.537 425.292V428.923C423.537 430.446 423.815 431.752 424.372 432.843C424.929 433.923 425.707 434.752 426.707 435.332C427.707 435.9 428.878 436.184 430.219 436.184C431.116 436.184 431.929 436.059 432.656 435.809C433.383 435.548 434.014 435.167 434.548 434.667C435.082 434.167 435.486 433.548 435.758 432.809L441.52 433.457C441.156 434.98 440.463 436.309 439.44 437.446C438.429 438.571 437.133 439.446 435.554 440.071C433.974 440.684 432.168 440.991 430.133 440.991ZM446.996 440.48V414.298H452.979V418.661H453.251C453.729 417.15 454.547 415.985 455.706 415.167C456.876 414.338 458.212 413.923 459.712 413.923C460.052 413.923 460.433 413.94 460.854 413.974C461.285 413.997 461.643 414.036 461.927 414.093V419.769C461.666 419.678 461.251 419.599 460.683 419.531C460.126 419.451 459.587 419.411 459.064 419.411C457.939 419.411 456.927 419.656 456.03 420.144C455.143 420.622 454.445 421.286 453.933 422.139C453.422 422.991 453.166 423.974 453.166 425.088V440.48H446.996ZM473.092 441.008C471.433 441.008 469.939 440.713 468.609 440.122C467.291 439.519 466.246 438.633 465.473 437.463C464.712 436.292 464.331 434.849 464.331 433.133C464.331 431.656 464.604 430.434 465.149 429.468C465.695 428.502 466.439 427.73 467.382 427.15C468.325 426.571 469.388 426.133 470.57 425.838C471.763 425.531 472.996 425.309 474.268 425.173C475.802 425.014 477.047 424.872 478.001 424.747C478.956 424.61 479.649 424.406 480.081 424.133C480.524 423.849 480.746 423.411 480.746 422.821V422.718C480.746 421.434 480.365 420.44 479.604 419.735C478.842 419.031 477.746 418.678 476.314 418.678C474.802 418.678 473.604 419.008 472.717 419.667C471.842 420.326 471.251 421.105 470.945 422.002L465.183 421.184C465.638 419.593 466.388 418.264 467.433 417.196C468.479 416.116 469.757 415.309 471.268 414.775C472.78 414.23 474.45 413.957 476.28 413.957C477.541 413.957 478.797 414.105 480.047 414.4C481.297 414.696 482.439 415.184 483.473 415.866C484.507 416.536 485.337 417.451 485.962 418.61C486.598 419.769 486.916 421.218 486.916 422.957V440.48H480.984V436.883H480.78C480.405 437.61 479.876 438.292 479.195 438.928C478.524 439.553 477.677 440.059 476.655 440.446C475.643 440.821 474.456 441.008 473.092 441.008ZM474.695 436.474C475.933 436.474 477.007 436.23 477.916 435.741C478.825 435.241 479.524 434.582 480.013 433.764C480.513 432.946 480.763 432.053 480.763 431.088V428.002C480.57 428.161 480.24 428.309 479.774 428.446C479.32 428.582 478.808 428.701 478.24 428.803C477.672 428.906 477.109 428.997 476.552 429.076C475.996 429.156 475.513 429.224 475.104 429.281C474.183 429.406 473.359 429.61 472.632 429.894C471.905 430.178 471.331 430.576 470.91 431.088C470.49 431.588 470.28 432.235 470.28 433.031C470.28 434.167 470.695 435.025 471.524 435.605C472.354 436.184 473.41 436.474 474.695 436.474ZM506.195 414.298V419.071H491.143V414.298H506.195ZM494.859 408.025H501.03V432.605C501.03 433.434 501.155 434.071 501.405 434.514C501.666 434.946 502.007 435.241 502.427 435.4C502.848 435.559 503.314 435.639 503.825 435.639C504.212 435.639 504.564 435.61 504.882 435.553C505.212 435.497 505.462 435.446 505.632 435.4L506.672 440.224C506.342 440.338 505.871 440.463 505.257 440.599C504.655 440.735 503.916 440.815 503.041 440.838C501.496 440.883 500.104 440.65 498.865 440.139C497.626 439.616 496.643 438.809 495.916 437.718C495.2 436.627 494.848 435.264 494.859 433.627V408.025ZM511.355 440.48V414.298H517.525V440.48H511.355ZM514.457 410.582C513.48 410.582 512.639 410.258 511.935 409.61C511.23 408.951 510.878 408.161 510.878 407.241C510.878 406.309 511.23 405.519 511.935 404.872C512.639 404.213 513.48 403.883 514.457 403.883C515.446 403.883 516.287 404.213 516.98 404.872C517.685 405.519 518.037 406.309 518.037 407.241C518.037 408.161 517.685 408.951 516.98 409.61C516.287 410.258 515.446 410.582 514.457 410.582ZM530.041 425.139V440.48H523.871V414.298H529.768V418.747H530.075C530.677 417.281 531.638 416.116 532.956 415.252C534.285 414.389 535.927 413.957 537.882 413.957C539.689 413.957 541.263 414.343 542.604 415.116C543.956 415.889 545.001 417.008 545.74 418.474C546.49 419.94 546.859 421.718 546.848 423.809V440.48H540.677V424.764C540.677 423.014 540.223 421.644 539.314 420.656C538.416 419.667 537.172 419.173 535.581 419.173C534.501 419.173 533.541 419.411 532.7 419.889C531.871 420.355 531.217 421.031 530.74 421.917C530.274 422.803 530.041 423.877 530.041 425.139ZM564.507 450.843C562.291 450.843 560.388 450.542 558.797 449.94C557.206 449.349 555.927 448.553 554.962 447.553C553.996 446.553 553.325 445.446 552.95 444.23L558.507 442.883C558.757 443.394 559.121 443.9 559.598 444.4C560.075 444.911 560.717 445.332 561.524 445.661C562.342 446.002 563.371 446.173 564.609 446.173C566.359 446.173 567.808 445.747 568.956 444.894C570.104 444.053 570.677 442.667 570.677 440.735V435.775H570.371C570.052 436.411 569.587 437.065 568.973 437.735C568.371 438.406 567.57 438.968 566.57 439.423C565.581 439.877 564.337 440.105 562.837 440.105C560.825 440.105 559.001 439.633 557.365 438.69C555.74 437.735 554.445 436.315 553.479 434.428C552.524 432.531 552.047 430.156 552.047 427.303C552.047 424.428 552.524 422.002 553.479 420.025C554.445 418.036 555.746 416.531 557.382 415.508C559.018 414.474 560.842 413.957 562.854 413.957C564.388 413.957 565.649 414.218 566.638 414.741C567.638 415.252 568.433 415.872 569.024 416.599C569.615 417.315 570.064 417.991 570.371 418.627H570.712V414.298H576.797V440.906C576.797 443.144 576.263 444.997 575.195 446.463C574.126 447.928 572.666 449.025 570.814 449.752C568.962 450.48 566.859 450.843 564.507 450.843ZM564.558 435.264C565.865 435.264 566.979 434.946 567.899 434.309C568.82 433.673 569.518 432.758 569.996 431.565C570.473 430.372 570.712 428.94 570.712 427.269C570.712 425.622 570.473 424.178 569.996 422.94C569.53 421.701 568.837 420.741 567.916 420.059C567.007 419.366 565.888 419.019 564.558 419.019C563.183 419.019 562.035 419.377 561.115 420.093C560.195 420.809 559.501 421.792 559.035 423.042C558.57 424.281 558.337 425.69 558.337 427.269C558.337 428.872 558.57 430.275 559.035 431.48C559.513 432.673 560.212 433.605 561.132 434.275C562.064 434.934 563.206 435.264 564.558 435.264ZM602.561 441.008C600.902 441.008 599.408 440.713 598.078 440.122C596.76 439.519 595.714 438.633 594.942 437.463C594.18 436.292 593.8 434.849 593.8 433.133C593.8 431.656 594.072 430.434 594.618 429.468C595.163 428.502 595.908 427.73 596.851 427.15C597.794 426.571 598.856 426.133 600.038 425.838C601.231 425.531 602.464 425.309 603.737 425.173C605.271 425.014 606.516 424.872 607.47 424.747C608.425 424.61 609.118 424.406 609.55 424.133C609.993 423.849 610.214 423.411 610.214 422.821V422.718C610.214 421.434 609.834 420.44 609.072 419.735C608.311 419.031 607.214 418.678 605.783 418.678C604.271 418.678 603.072 419.008 602.186 419.667C601.311 420.326 600.72 421.105 600.413 422.002L594.652 421.184C595.106 419.593 595.856 418.264 596.902 417.196C597.947 416.116 599.226 415.309 600.737 414.775C602.248 414.23 603.919 413.957 605.748 413.957C607.01 413.957 608.266 414.105 609.516 414.4C610.766 414.696 611.908 415.184 612.942 415.866C613.976 416.536 614.805 417.451 615.43 418.61C616.067 419.769 616.385 421.218 616.385 422.957V440.48H610.453V436.883H610.248C609.873 437.61 609.345 438.292 608.663 438.928C607.993 439.553 607.146 440.059 606.123 440.446C605.112 440.821 603.925 441.008 602.561 441.008ZM604.163 436.474C605.402 436.474 606.476 436.23 607.385 435.741C608.294 435.241 608.993 434.582 609.481 433.764C609.981 432.946 610.231 432.053 610.231 431.088V428.002C610.038 428.161 609.709 428.309 609.243 428.446C608.788 428.582 608.277 428.701 607.709 428.803C607.141 428.906 606.578 428.997 606.021 429.076C605.464 429.156 604.981 429.224 604.572 429.281C603.652 429.406 602.828 429.61 602.101 429.894C601.373 430.178 600.8 430.576 600.379 431.088C599.959 431.588 599.748 432.235 599.748 433.031C599.748 434.167 600.163 435.025 600.993 435.605C601.822 436.184 602.879 436.474 604.163 436.474ZM634.01 440.991C631.396 440.991 629.152 440.417 627.277 439.269C625.413 438.122 623.976 436.536 622.964 434.514C621.964 432.48 621.464 430.139 621.464 427.491C621.464 424.832 621.976 422.485 622.998 420.451C624.021 418.406 625.464 416.815 627.328 415.678C629.203 414.531 631.419 413.957 633.976 413.957C636.101 413.957 637.981 414.349 639.618 415.133C641.266 415.906 642.578 417.002 643.555 418.423C644.533 419.832 645.089 421.48 645.226 423.366H639.328C639.089 422.105 638.521 421.053 637.623 420.213C636.737 419.36 635.55 418.934 634.061 418.934C632.8 418.934 631.692 419.275 630.737 419.957C629.783 420.627 629.038 421.593 628.504 422.855C627.981 424.116 627.72 425.627 627.72 427.389C627.72 429.173 627.981 430.707 628.504 431.991C629.027 433.264 629.76 434.247 630.703 434.94C631.658 435.622 632.777 435.963 634.061 435.963C634.97 435.963 635.783 435.792 636.498 435.451C637.226 435.099 637.834 434.593 638.322 433.934C638.811 433.275 639.146 432.474 639.328 431.531H645.226C645.078 433.383 644.533 435.025 643.589 436.457C642.646 437.877 641.362 438.991 639.737 439.798C638.112 440.593 636.203 440.991 634.01 440.991ZM663.366 414.298V419.071H648.315V414.298H663.366ZM652.031 408.025H658.202V432.605C658.202 433.434 658.327 434.071 658.577 434.514C658.838 434.946 659.179 435.241 659.599 435.4C660.02 435.559 660.486 435.639 660.997 435.639C661.383 435.639 661.736 435.61 662.054 435.553C662.383 435.497 662.633 435.446 662.804 435.4L663.844 440.224C663.514 440.338 663.043 440.463 662.429 440.599C661.827 440.735 661.088 440.815 660.213 440.838C658.668 440.883 657.275 440.65 656.037 440.139C654.798 439.616 653.815 438.809 653.088 437.718C652.372 436.627 652.02 435.264 652.031 433.627V408.025ZM668.527 440.48V414.298H674.697V440.48H668.527ZM671.629 410.582C670.652 410.582 669.811 410.258 669.106 409.61C668.402 408.951 668.05 408.161 668.05 407.241C668.05 406.309 668.402 405.519 669.106 404.872C669.811 404.213 670.652 403.883 671.629 403.883C672.618 403.883 673.459 404.213 674.152 404.872C674.856 405.519 675.209 406.309 675.209 407.241C675.209 408.161 674.856 408.951 674.152 409.61C673.459 410.258 672.618 410.582 671.629 410.582ZM692.463 440.991C689.906 440.991 687.69 440.428 685.815 439.303C683.94 438.178 682.486 436.605 681.452 434.582C680.429 432.559 679.918 430.196 679.918 427.491C679.918 424.786 680.429 422.417 681.452 420.383C682.486 418.349 683.94 416.769 685.815 415.644C687.69 414.519 689.906 413.957 692.463 413.957C695.02 413.957 697.236 414.519 699.111 415.644C700.986 416.769 702.435 418.349 703.457 420.383C704.491 422.417 705.008 424.786 705.008 427.491C705.008 430.196 704.491 432.559 703.457 434.582C702.435 436.605 700.986 438.178 699.111 439.303C697.236 440.428 695.02 440.991 692.463 440.991ZM692.497 436.048C693.883 436.048 695.043 435.667 695.974 434.906C696.906 434.133 697.599 433.099 698.054 431.803C698.52 430.508 698.753 429.065 698.753 427.474C698.753 425.872 698.52 424.423 698.054 423.127C697.599 421.821 696.906 420.781 695.974 420.008C695.043 419.235 693.883 418.849 692.497 418.849C691.077 418.849 689.895 419.235 688.952 420.008C688.02 420.781 687.321 421.821 686.855 423.127C686.4 424.423 686.173 425.872 686.173 427.474C686.173 429.065 686.4 430.508 686.855 431.803C687.321 433.099 688.02 434.133 688.952 434.906C689.895 435.667 691.077 436.048 692.497 436.048ZM716.416 425.139V440.48H710.246V414.298H716.143V418.747H716.45C717.052 417.281 718.013 416.116 719.331 415.252C720.66 414.389 722.302 413.957 724.257 413.957C726.064 413.957 727.638 414.343 728.979 415.116C730.331 415.889 731.376 417.008 732.115 418.474C732.865 419.94 733.234 421.718 733.223 423.809V440.48H727.052V424.764C727.052 423.014 726.598 421.644 725.689 420.656C724.791 419.667 723.547 419.173 721.956 419.173C720.876 419.173 719.916 419.411 719.075 419.889C718.246 420.355 717.592 421.031 717.115 421.917C716.649 422.803 716.416 423.877 716.416 425.139ZM747.03 441.008C745.371 441.008 743.876 440.713 742.547 440.122C741.229 439.519 740.183 438.633 739.41 437.463C738.649 436.292 738.268 434.849 738.268 433.133C738.268 431.656 738.541 430.434 739.087 429.468C739.632 428.502 740.376 427.73 741.32 427.15C742.263 426.571 743.325 426.133 744.507 425.838C745.7 425.531 746.933 425.309 748.206 425.173C749.74 425.014 750.984 424.872 751.939 424.747C752.893 424.61 753.587 424.406 754.018 424.133C754.462 423.849 754.683 423.411 754.683 422.821V422.718C754.683 421.434 754.302 420.44 753.541 419.735C752.78 419.031 751.683 418.678 750.251 418.678C748.74 418.678 747.541 419.008 746.655 419.667C745.78 420.326 745.189 421.105 744.882 422.002L739.121 421.184C739.575 419.593 740.325 418.264 741.371 417.196C742.416 416.116 743.695 415.309 745.206 414.775C746.717 414.23 748.388 413.957 750.217 413.957C751.479 413.957 752.734 414.105 753.984 414.4C755.234 414.696 756.376 415.184 757.41 415.866C758.445 416.536 759.274 417.451 759.899 418.61C760.535 419.769 760.854 421.218 760.854 422.957V440.48H754.922V436.883H754.717C754.342 437.61 753.814 438.292 753.132 438.928C752.462 439.553 751.615 440.059 750.592 440.446C749.581 440.821 748.393 441.008 747.03 441.008ZM748.632 436.474C749.871 436.474 750.945 436.23 751.854 435.741C752.763 435.241 753.462 434.582 753.95 433.764C754.45 432.946 754.7 432.053 754.7 431.088V428.002C754.507 428.161 754.177 428.309 753.712 428.446C753.257 428.582 752.746 428.701 752.177 428.803C751.609 428.906 751.047 428.997 750.49 429.076C749.933 429.156 749.45 429.224 749.041 429.281C748.121 429.406 747.297 429.61 746.57 429.894C745.842 430.178 745.268 430.576 744.848 431.088C744.427 431.588 744.217 432.235 744.217 433.031C744.217 434.167 744.632 435.025 745.462 435.605C746.291 436.184 747.348 436.474 748.632 436.474ZM767.331 440.48V405.571H773.501V418.627H773.757C774.075 417.991 774.524 417.315 775.104 416.599C775.683 415.872 776.467 415.252 777.456 414.741C778.445 414.218 779.706 413.957 781.24 413.957C783.263 413.957 785.087 414.474 786.712 415.508C788.348 416.531 789.643 418.048 790.598 420.059C791.564 422.059 792.047 424.514 792.047 427.423C792.047 430.298 791.575 432.741 790.632 434.752C789.689 436.764 788.405 438.298 786.78 439.355C785.155 440.411 783.314 440.94 781.257 440.94C779.757 440.94 778.513 440.69 777.524 440.19C776.535 439.69 775.74 439.088 775.138 438.383C774.547 437.667 774.087 436.991 773.757 436.355H773.399V440.48H767.331ZM773.382 427.389C773.382 429.082 773.621 430.565 774.098 431.838C774.587 433.11 775.285 434.105 776.195 434.821C777.115 435.525 778.229 435.877 779.535 435.877C780.899 435.877 782.041 435.514 782.962 434.786C783.882 434.048 784.575 433.042 785.041 431.769C785.518 430.485 785.757 429.025 785.757 427.389C785.757 425.764 785.524 424.321 785.058 423.059C784.592 421.798 783.899 420.809 782.979 420.093C782.058 419.377 780.91 419.019 779.535 419.019C778.217 419.019 777.098 419.366 776.177 420.059C775.257 420.752 774.558 421.724 774.081 422.974C773.615 424.224 773.382 425.696 773.382 427.389ZM803.463 405.571V440.48H797.293V405.571H803.463ZM821.399 440.991C818.774 440.991 816.507 440.446 814.598 439.355C812.7 438.252 811.24 436.696 810.217 434.684C809.195 432.661 808.683 430.281 808.683 427.542C808.683 424.849 809.195 422.485 810.217 420.451C811.251 418.406 812.695 416.815 814.547 415.678C816.399 414.531 818.575 413.957 821.075 413.957C822.689 413.957 824.212 414.218 825.643 414.741C827.087 415.252 828.359 416.048 829.462 417.127C830.575 418.207 831.45 419.582 832.087 421.252C832.723 422.911 833.041 424.889 833.041 427.184V429.076H811.581V424.917H827.126C827.115 423.735 826.859 422.684 826.359 421.764C825.859 420.832 825.16 420.099 824.263 419.565C823.376 419.031 822.342 418.764 821.16 418.764C819.899 418.764 818.791 419.071 817.837 419.684C816.882 420.286 816.138 421.082 815.604 422.071C815.081 423.048 814.814 424.122 814.802 425.292V428.923C814.802 430.446 815.081 431.752 815.638 432.843C816.195 433.923 816.973 434.752 817.973 435.332C818.973 435.9 820.143 436.184 821.484 436.184C822.382 436.184 823.195 436.059 823.922 435.809C824.649 435.548 825.28 435.167 825.814 434.667C826.348 434.167 826.751 433.548 827.024 432.809L832.785 433.457C832.422 434.98 831.729 436.309 830.706 437.446C829.695 438.571 828.399 439.446 826.82 440.071C825.24 440.684 823.433 440.991 821.399 440.991ZM872.446 405.571H878.77V428.377C878.77 430.877 878.179 433.076 876.997 434.974C875.827 436.872 874.179 438.355 872.054 439.423C869.929 440.48 867.446 441.008 864.605 441.008C861.753 441.008 859.264 440.48 857.139 439.423C855.014 438.355 853.366 436.872 852.196 434.974C851.025 433.076 850.44 430.877 850.44 428.377V405.571H856.764V427.849C856.764 429.303 857.082 430.599 857.719 431.735C858.366 432.872 859.275 433.764 860.446 434.411C861.616 435.048 863.003 435.366 864.605 435.366C866.207 435.366 867.594 435.048 868.764 434.411C869.946 433.764 870.855 432.872 871.491 431.735C872.128 430.599 872.446 429.303 872.446 427.849V405.571ZM891.967 405.571V440.48H885.643V405.571H891.967Z" fill="#2B2B2B"/>
<defs>
<linearGradient id="paint0_linear_36_1484" x1="84.9116" y1="248.495" x2="241.86" y2="257.564" gradientUnits="userSpaceOnUse">
<stop stop-color="#C700E7"/>
<stop offset="1" stop-color="#6303FF"/>
</linearGradient>
<linearGradient id="paint1_linear_36_1484" x1="251.587" y1="115.077" x2="997.127" y2="230.807" gradientUnits="userSpaceOnUse">
<stop stop-color="#C700E7"/>
<stop offset="1" stop-color="#6303FF"/>
</linearGradient>
<linearGradient id="paint2_linear_36_1484" x1="1018.1" y1="62.5586" x2="1138.97" y2="95.4946" gradientUnits="userSpaceOnUse">
<stop stop-color="#C700E7"/>
<stop offset="1" stop-color="#6303FF"/>
</linearGradient>
<clipPath id="clip0_36_1484">
<rect width="120.193" height="120.193" fill="white" transform="translate(1022.12 42.8853) rotate(11.5332)"/>
</clipPath>
</defs>
</svg>
