<svg width="250" height="65" viewBox="0 0 250 65" fill="none" xmlns="http://www.w3.org/2000/svg">
<path d="M18.5185 44.9985C19.0355 45.3636 19.6274 45.6092 20.2511 45.7174C20.8748 45.8256 21.5147 45.7937 22.1246 45.624C22.7344 45.4544 23.2989 45.1512 23.7771 44.7365C24.2554 44.3217 24.6354 43.8058 24.8896 43.2261L26.9084 37.091C27.3994 35.6149 28.2275 34.2735 29.327 33.1731C30.4265 32.0727 31.7672 31.2435 33.2428 30.7513L39.1106 28.8452C39.9446 28.5551 40.6657 28.0091 41.1714 27.2852C41.5618 26.7363 41.8161 26.1025 41.9132 25.436C42.0104 24.7695 41.9477 24.0895 41.7302 23.452C41.5128 22.8145 41.1469 22.2379 40.6627 21.7697C40.1784 21.3015 39.5898 20.9552 38.9454 20.7594L33.138 18.8716C31.6615 18.3819 30.3194 17.5549 29.2181 16.4563C28.1168 15.3577 27.2865 14.0177 26.7931 12.5424L24.887 6.67733C24.5939 5.84634 24.0496 5.12707 23.3296 4.61917C22.6052 4.1197 21.7462 3.85223 20.8663 3.85223C19.9865 3.85223 19.1274 4.1197 18.4031 4.61917C17.6719 5.13624 17.1216 5.86994 16.83 6.71666L14.9003 12.6552C14.408 14.0921 13.5954 15.3983 12.5238 16.4748C11.4523 17.5513 10.1499 18.3701 8.71531 18.869L2.84233 20.7725C2.00663 21.0679 1.28379 21.6164 0.774381 22.3418C0.264971 23.0672 -0.00567833 23.9333 9.03341e-05 24.8196C0.005859 25.706 0.287758 26.5685 0.806567 27.2872C1.32538 28.0059 2.05529 28.545 2.89477 28.8295L8.70482 30.7172C10.5885 31.3494 12.2444 32.522 13.4661 34.0889C14.1635 34.9882 14.701 35.9976 15.055 37.0779L16.9637 42.9351C17.2573 43.7689 17.8027 44.4899 18.5237 44.9985M44.0711 60.9394C44.6048 61.3165 45.2426 61.5181 45.896 61.5163C46.5449 61.5183 47.1787 61.3195 47.7103 60.9473C48.2576 60.5608 48.6673 60.0097 48.8796 59.3742L49.855 56.3774C50.0613 55.7552 50.4096 55.1896 50.8725 54.7254C51.3353 54.2612 51.8998 53.9112 52.5214 53.7031L55.5785 52.712C56.195 52.493 56.7288 52.0888 57.1066 51.5546C57.4845 51.0205 57.6879 50.3826 57.6891 49.7283C57.6891 49.057 57.4744 48.4032 57.0762 47.8626C56.6781 47.3219 56.1174 46.9229 55.4763 46.7237L52.4768 45.7536C51.8544 45.547 51.2886 45.1983 50.8244 44.735C50.3602 44.2717 50.0103 43.7066 49.8025 43.0845L48.8062 40.0353C48.5914 39.413 48.1867 38.8737 47.6492 38.4935C47.1117 38.1133 46.4685 37.9113 45.8101 37.9159C45.1517 37.9205 44.5114 38.1316 43.9793 38.5193C43.4472 38.9071 43.0502 39.452 42.8441 40.0773L41.8635 43.0819C41.6626 43.696 41.3233 44.2557 40.872 44.718C40.4206 45.1803 39.8691 45.5328 39.26 45.7484L36.2029 46.7394C35.585 46.9577 35.0498 47.362 34.671 47.8967C34.2921 48.4314 34.0881 49.0704 34.0871 49.7257C34.0878 50.3867 34.2966 51.0306 34.6839 51.5662C35.0712 52.1018 35.6174 52.5018 36.2449 52.7094L39.2443 53.6847C39.8692 53.8908 40.4368 54.2409 40.9014 54.7068C41.366 55.1728 41.7144 55.7414 41.9186 56.3669L42.9123 59.4161C43.1291 60.0322 43.5323 60.5655 44.0659 60.9421" fill="url(#paint0_linear_36_1695)"/>
<path d="M107.133 25.3233C106.994 24.3021 106.742 23.3881 106.377 22.5813C106.011 21.7618 105.519 21.0684 104.902 20.5011C104.284 19.9212 103.534 19.48 102.651 19.1774C101.769 18.8748 100.741 18.7236 99.569 18.7236C97.4889 18.7236 95.5159 19.2467 93.6501 20.2931C91.7843 21.3395 90.1895 22.8775 88.8658 24.9072C87.5421 26.9243 86.6407 29.3827 86.1616 32.2823C85.6825 35.2071 85.7078 37.6843 86.2373 39.714C86.7667 41.7437 87.7375 43.2881 89.1494 44.3471C90.574 45.3934 92.3642 45.9166 94.52 45.9166C96.4993 45.9166 98.2957 45.5384 99.9094 44.782C101.523 44.0256 102.859 42.954 103.918 41.5672C104.99 40.1679 105.671 38.529 105.961 36.6506L107.511 36.8964H96.9783L97.9238 31.4124H113.638L112.844 36.0643C112.302 39.3926 111.123 42.2669 109.308 44.6874C107.505 47.0954 105.255 48.9549 102.557 50.266C99.8716 51.5645 96.9279 52.2138 93.7257 52.2138C90.1706 52.2138 87.1765 51.4132 84.7433 49.8121C82.3228 48.1985 80.6083 45.9103 79.5997 42.9477C78.5912 39.9725 78.4273 36.4425 79.1081 32.3579C79.6123 29.2314 80.5074 26.439 81.7933 23.9806C83.0918 21.5223 84.6803 19.4358 86.5587 17.7213C88.4498 15.9942 90.5488 14.6831 92.8559 13.788C95.1629 12.8803 97.5834 12.4264 100.117 12.4264C102.248 12.4264 104.189 12.7416 105.942 13.3719C107.694 13.9897 109.194 14.8722 110.442 16.0194C111.703 17.1666 112.668 18.5282 113.336 20.104C114.004 21.6799 114.319 23.4196 114.281 25.3233H107.133ZM129.518 52.2516C126.606 52.2516 124.198 51.6464 122.295 50.4362C120.391 49.2133 119.055 47.4862 118.286 45.2548C117.529 43.0107 117.403 40.3696 117.907 37.3313C118.399 34.3435 119.401 31.7213 120.914 29.4646C122.427 27.1954 124.318 25.4304 126.587 24.1697C128.869 22.8964 131.39 22.2598 134.151 22.2598C135.941 22.2598 137.587 22.5498 139.087 23.1297C140.587 23.697 141.854 24.5795 142.888 25.7771C143.922 26.9748 144.634 28.5002 145.025 30.3534C145.416 32.194 145.397 34.3876 144.968 36.9342L144.647 39.0333H120.82L121.557 34.4191H138.803C139.03 33.108 138.955 31.9419 138.576 30.9207C138.198 29.887 137.568 29.0738 136.685 28.4813C135.803 27.8888 134.7 27.5925 133.376 27.5925C132.027 27.5925 130.766 27.9392 129.594 28.6326C128.434 29.3133 127.457 30.1958 126.663 31.28C125.869 32.3642 125.364 33.5051 125.15 34.7028L124.375 39.1278C124.097 40.9432 124.16 42.4245 124.564 43.5717C124.967 44.719 125.673 45.5636 126.682 46.1057C127.69 46.6478 128.964 46.9189 130.502 46.9189C131.51 46.9189 132.443 46.7802 133.3 46.5028C134.158 46.2255 134.92 45.8095 135.588 45.2548C136.269 44.6874 136.837 43.9941 137.29 43.1746L143.55 43.8932C142.856 45.5825 141.841 47.0575 140.505 48.3182C139.169 49.5663 137.568 50.537 135.702 51.2304C133.849 51.9112 131.788 52.2516 129.518 52.2516ZM148.372 51.6843L153.213 22.638H159.775L158.943 27.5736H159.302C160.185 25.9095 161.401 24.611 162.952 23.6781C164.502 22.7326 166.248 22.2598 168.19 22.2598C170.144 22.2598 171.72 22.7389 172.917 23.697C174.128 24.6425 174.872 25.9347 175.149 27.5736H175.451C176.359 25.9473 177.658 24.6551 179.347 23.697C181.049 22.7389 182.959 22.2598 185.077 22.2598C187.724 22.2598 189.754 23.1045 191.166 24.7938C192.578 26.4831 193.013 28.9477 192.471 32.1877L189.218 51.6843H182.373L185.474 33.2467C185.751 31.4439 185.474 30.1265 184.642 29.2944C183.822 28.4498 182.719 28.0274 181.333 28.0274C179.681 28.0274 178.307 28.538 177.21 29.5592C176.126 30.5803 175.458 31.9167 175.206 33.5682L172.161 51.6843H165.448L168.587 32.963C168.814 31.4628 168.549 30.2652 167.793 29.3701C167.049 28.475 165.952 28.0274 164.502 28.0274C163.519 28.0274 162.58 28.2796 161.685 28.7839C160.79 29.2881 160.027 29.9941 159.397 30.9018C158.779 31.7969 158.375 32.837 158.186 34.022L155.236 51.6843H148.372ZM227.289 12.9559H234.305L230.107 38.2579C229.653 41.0314 228.594 43.4709 226.93 45.5762C225.279 47.6816 223.173 49.3268 220.614 50.5118C218.055 51.6843 215.206 52.2705 212.067 52.2705C208.902 52.2705 206.242 51.6843 204.086 50.5118C201.931 49.3268 200.374 47.6816 199.416 45.5762C198.47 43.4709 198.224 41.0314 198.678 38.2579L202.876 12.9559H209.892L205.788 37.6717C205.524 39.2854 205.643 40.7226 206.148 41.9833C206.665 43.2313 207.509 44.2147 208.682 44.9333C209.867 45.6519 211.348 46.0112 213.126 46.0112C214.903 46.0112 216.504 45.6519 217.929 44.9333C219.353 44.2147 220.52 43.2313 221.427 41.9833C222.335 40.7226 222.921 39.2854 223.186 37.6717L227.289 12.9559ZM248.946 12.9559L242.517 51.6843H235.501L241.931 12.9559H248.946Z" fill="#2B2B2B"/>
<defs>
<linearGradient id="paint0_linear_36_1695" x1="-1.87859e-08" y1="11.6323" x2="60.0538" y2="15.1025" gradientUnits="userSpaceOnUse">
<stop stop-color="#C700E7"/>
<stop offset="1" stop-color="#6303FF"/>
</linearGradient>
</defs>
</svg>
