<svg width="87" height="86" viewBox="0 0 87 86" fill="none" xmlns="http://www.w3.org/2000/svg">
<rect x="3.51562" y="3.08424" width="79.8315" height="79.8315" rx="7.48024" fill="#C700E7" fill-opacity="0.05"/>
<rect x="2.01958" y="1.5882" width="82.8236" height="82.8236" rx="8.97628" stroke="url(#paint0_linear_36_1754)" stroke-opacity="0.16" stroke-width="2.99209"/>
<path d="M61.3513 42.4751L37.9776 67.5183C37.7299 67.7827 37.4029 67.9593 37.046 68.0215C36.6892 68.0837 36.3217 68.0282 35.9992 67.8632C35.6767 67.6983 35.4165 67.433 35.258 67.1072C35.0995 66.7815 35.0513 66.413 35.1206 66.0575L38.18 50.754L26.153 46.2378C25.8947 46.1412 25.6643 45.9821 25.4825 45.7748C25.3007 45.5674 25.1731 45.3182 25.1111 45.0495C25.0491 44.7808 25.0546 44.5009 25.1272 44.2348C25.1997 43.9688 25.3371 43.7248 25.5269 43.5248L48.9006 18.4816C49.1483 18.2172 49.4752 18.0406 49.8321 17.9784C50.189 17.9162 50.5564 17.9717 50.879 18.1366C51.2015 18.3016 51.4616 18.5669 51.6201 18.8927C51.7786 19.2184 51.8269 19.5868 51.7576 19.9424L48.6898 35.2626L60.7168 39.7725C60.9732 39.8698 61.2017 40.0287 61.3821 40.2352C61.5625 40.4418 61.6892 40.6896 61.7511 40.9567C61.813 41.2239 61.8081 41.5021 61.737 41.767C61.6658 42.0318 61.5304 42.275 61.3429 42.4751H61.3513Z" fill="url(#paint1_linear_36_1754)"/>
<defs>
<linearGradient id="paint0_linear_36_1754" x1="3.51562" y1="13.8552" x2="86.6197" y2="18.6552" gradientUnits="userSpaceOnUse">
<stop stop-color="#C700E7"/>
<stop offset="1" stop-color="#6303FF"/>
</linearGradient>
<linearGradient id="paint1_linear_36_1754" x1="25.0684" y1="24.7121" x2="63.3586" y2="26.3336" gradientUnits="userSpaceOnUse">
<stop stop-color="#C700E7"/>
<stop offset="1" stop-color="#6303FF"/>
</linearGradient>
</defs>
</svg>
